<svg id="Capa_1" data-name="Capa 1" xmlns="http://www.w3.org/2000/svg" viewBox="0 0 94.69 63.32"><defs><style>.cls-1{fill:#cc485e;}.cls-2{fill:#364be0;}</style></defs><path class="cls-1" d="M36.71,42.52l18.16,4.87A8.4,8.4,0,0,0,63,45.21h0a8.41,8.41,0,0,0-3.77-14.07L36.07,24.93l-23.16-6.2A8.41,8.41,0,0,0,2.61,29l6.2,23.16L15,75.35a8.41,8.41,0,0,0,14.07,3.77h0A8.4,8.4,0,0,0,31.27,71L26.4,52.83A8.42,8.42,0,0,1,36.71,42.52Z" transform="translate(-2.31 -18.43)"/><path class="cls-2" d="M62.61,57.66,44.44,52.79A8.4,8.4,0,0,0,36.31,55h0A8.41,8.41,0,0,0,40.08,69l23.16,6.21L86.4,81.46A8.41,8.41,0,0,0,96.7,71.15L90.5,48,84.29,24.83a8.41,8.41,0,0,0-14.07-3.77h0A8.41,8.41,0,0,0,68,29.19l4.87,18.17A8.41,8.41,0,0,1,62.61,57.66Z" transform="translate(-2.31 -18.43)"/></svg>