<svg id="Capa_1" data-name="Capa 1" xmlns="http://www.w3.org/2000/svg" viewBox="0 0 80.31 79.84"><defs><style>.cls-1{fill:#a6e7f0;}.cls-1,.cls-2,.cls-3,.cls-4,.cls-5,.cls-6,.cls-7,.cls-8,.cls-9{fill-rule:evenodd;}.cls-2{fill:#80d261;}.cls-3{fill:#838383;}.cls-4{fill:#acacac;}.cls-5{fill:#ececec;}.cls-6{fill:#cecece;}.cls-7{fill:#595959;}.cls-8{fill:#4fc122;}.cls-9{fill:#6bd9e7;}</style></defs><path class="cls-1" d="M89.73,58.16A33.16,33.16,0,0,1,23.5,55.68l20-27.85,15.15-5.19a33.23,33.23,0,0,1,11.07,2.62,33.87,33.87,0,0,1,3.14,1.55,33.19,33.19,0,0,1,16.94,29c0,.8,0,1.6-.08,2.39Z" transform="translate(-10.69 -10.3)"/><path class="cls-2" d="M72.87,26.81a33.19,33.19,0,0,1,16.94,29c0,.8,0,1.6-.08,2.39-.75,5.06-9.49,4.57-10,.17-.43-4.06-4.17-4.16-5.89-4.33-4.23-.43-6.16-3.47-.75-10.57,4.51-5.93-12-11.94-3.41-18.17a33.87,33.87,0,0,1,3.14,1.55Z" transform="translate(-10.69 -10.3)"/><path class="cls-3" d="M59.63,34.15,61.71,36a2.6,2.6,0,0,1,.21,3.64l-5.11,5.76L52.9,42.53l.25-5L56,34.36a2.57,2.57,0,0,1,3.63-.21Z" transform="translate(-10.69 -10.3)"/><path class="cls-4" d="M53.15,37.57l3.66,7.82,1.6,3.43A6,6,0,0,1,57.79,55l-1.85,2.07c-1.39,1.57-2.55,1.1-3.67-.6L41.5,40.53,43,33.35l7.64-1.12Z" transform="translate(-10.69 -10.3)"/><path class="cls-4" d="M33.49,47.8l4,8A4.62,4.62,0,0,1,37,60.61l-1,1.14c-1.09,1.22-2,.86-2.86-.47L26.77,53.9l1.49-4.32Z" transform="translate(-10.69 -10.3)"/><path class="cls-4" d="M18.21,38.68l8.26,2.9,0,5.66-5.15,1.65-8-5.23c-1.42-.71-1.89-1.57-.79-2.79l1-1.15a4.57,4.57,0,0,1,4.72-1Z" transform="translate(-10.69 -10.3)"/><path class="cls-2" d="M66,73.07c3-4.9,12.05-6,18.42.86a33.08,33.08,0,0,1-47.06,8.79c-.3-9.09,7-11.45,12.95-6.56,2.55,2.1,12,3.12,15.69-3.09Z" transform="translate(-10.69 -10.3)"/><path class="cls-3" d="M33.18,11.49a2.56,2.56,0,0,1,1.7.64L37,14a2.59,2.59,0,0,1,.21,3.64l-2.84,3.2H28.26l-2.13-2.71,5.12-5.76a2.55,2.55,0,0,1,1.92-.86Z" transform="translate(-10.69 -10.3)"/><path class="cls-4" d="M26.13,18.11l8.2,2.71,5.58,1.85-1,7.22-6.17,2.86L15.66,23.91c-1.81-.91-2.41-2-1-3.58l1.85-2.07a5.94,5.94,0,0,1,6.05-1.34Z" transform="translate(-10.69 -10.3)"/><path class="cls-5" d="M49.73,13.13c2.74-.82,6.37-1.36,8.1.19s1.63,5.21,1.14,8a9.26,9.26,0,0,1-.31,1.29,14.77,14.77,0,0,1-4.32,6.25l-3.68,3.34-9.16,8.3L26.75,53.88l-.62.59a4.89,4.89,0,0,1-2.63,1.21c-2.8.29-4.75-2.74-2.78-6l.56-.78L32.75,32.75l7.16-10.08,2.88-4.05c2.22-3.1,4.65-4.81,6.94-5.49Z" transform="translate(-10.69 -10.3)"/><path class="cls-6" d="M47.59,29.2l-9.15,8.3L23.69,50.85l-.63.59a5,5,0,0,1-2.63,1.21,4,4,0,0,1-.49,0,3.19,3.19,0,0,0,3.56,3,5,5,0,0,0,2.63-1.2l.62-.6L41.5,40.53l9.16-8.3,3.68-3.34a14.77,14.77,0,0,0,4.32-6.25A9.26,9.26,0,0,0,59,21.35c.49-2.82.61-6.49-1.14-8A4,4,0,0,0,56,12.46a15.42,15.42,0,0,1-.05,5.86,8.09,8.09,0,0,1-.32,1.29,14.65,14.65,0,0,1-4.31,6.25Z" transform="translate(-10.69 -10.3)"/><path class="cls-3" d="M54.52,54.44,43.74,38.5l-2.24,2L52.27,56.47c1.12,1.7,2.28,2.17,3.67.6l1-1.13c-.87.27-1.66-.32-2.43-1.5Z" transform="translate(-10.69 -10.3)"/><path class="cls-7" d="M60.08,38l-4.41,5,1.14,2.42,5.11-5.76A2.6,2.6,0,0,0,61.71,36l-1.83-1.62h0a2.58,2.58,0,0,1,.2,3.63Z" transform="translate(-10.69 -10.3)"/><path class="cls-7" d="M31.73,20l2.6.87,2.84-3.2A2.59,2.59,0,0,0,37,14l-1.43-1.27c1,.95.65,2.4-.31,3.45Z" transform="translate(-10.69 -10.3)"/><path class="cls-3" d="M34.39,30.43,17.31,21.6C16,21,15.36,20.24,15.55,19.32l-.91,1c-1.39,1.58-.79,2.67,1,3.58l17.09,8.84Z" transform="translate(-10.69 -10.3)"/><path class="cls-3" d="M35,59.54l-6.32-7.39L26.77,53.9l6.32,7.38C34,62.61,34.86,63,36,61.75l.92-1c-.67.17-1.27-.29-1.86-1.18Z" transform="translate(-10.69 -10.3)"/><path class="cls-3" d="M22.79,46.76l-8-5.23c-1-.48-1.49-1-1.39-1.7l-.92,1c-1.1,1.22-.63,2.08.79,2.79l8,5.23Z" transform="translate(-10.69 -10.3)"/><path class="cls-8" d="M89.81,55.77a33.19,33.19,0,0,0-16.94-29c-.54-.3-1.1-.59-1.66-.87C76.63,33.12,80,43.08,80,54.09c0,1.5-.06,3-.19,4.43.7,4.23,9.19,4.62,9.93-.36.06-.79.08-1.59.08-2.39Z" transform="translate(-10.69 -10.3)"/><path class="cls-9" d="M89.73,58.16c-.74,5-9.23,4.59-9.93.36A50.13,50.13,0,0,1,77.63,69.6a15.09,15.09,0,0,1,6.78,4.33A33,33,0,0,0,89.73,58.16Z" transform="translate(-10.69 -10.3)"/><path class="cls-8" d="M77.63,69.6a39,39,0,0,1-11.4,18A33.15,33.15,0,0,0,84.41,73.93a15.09,15.09,0,0,0-6.78-4.33Z" transform="translate(-10.69 -10.3)"/><path d="M91,55.77a34.44,34.44,0,0,0-17.55-30,33.79,33.79,0,0,0-13.31-4.2v0c.53-3.08.7-7.16-1.52-9.11s-6.78-1.18-9.23-.45a14.85,14.85,0,0,0-7.56,5.94l-2.38,3.34-3-1,1.65-1.85a3.77,3.77,0,0,0-.32-5.32l-2.07-1.84a3.77,3.77,0,0,0-5.31.31l-4.6,5.18-2.85-.95a7.11,7.11,0,0,0-7.31,1.68l-1.84,2.08a3.32,3.32,0,0,0-1,2.85A3.89,3.89,0,0,0,15.12,25L31,33.17l-5,7-7.41-2.61a5.75,5.75,0,0,0-6,1.38l-1,1.14a2.82,2.82,0,0,0-.86,2.45,3.39,3.39,0,0,0,1.95,2.16l6.93,4.53c-1.6,2.8-.82,5.34.69,6.63a4.43,4.43,0,0,0,2,1,34.16,34.16,0,0,0,2.52,11.85,1.18,1.18,0,0,0,1.09.74,1.2,1.2,0,0,0,.45-.09A1.18,1.18,0,0,0,27,67.78,32,32,0,0,1,24.7,56.64a6.74,6.74,0,0,0,1.95-1.06L32.14,62a3.36,3.36,0,0,0,2.37,1.69h.16a2.92,2.92,0,0,0,2.17-1.15l1-1.14a5.71,5.71,0,0,0,.66-6.13L35,48.08l6.34-5.75,3.86,5.72a1.18,1.18,0,0,0,1,.52,1.18,1.18,0,0,0,1-1.85l-4.06-6,7.2-6.53,1.8,3.86,0,.05,5.24,11.22a4.8,4.8,0,0,1-.43,4.89l-1.85,2.07c-.4.46-.67.58-.76.57s-.51-.24-1-1L50,51a1.19,1.19,0,0,0-2,1.33l3.26,4.83a3.89,3.89,0,0,0,2.84,2.08h.18a3.44,3.44,0,0,0,2.53-1.36l1.84-2.08a7.11,7.11,0,0,0,.81-7.46L58.21,45.6l4.6-5.18a3.77,3.77,0,0,0-.32-5.31l-2.07-1.85a3.77,3.77,0,0,0-5.31.31l-1.65,1.86L52.1,32.52l3-2.75h0a16.75,16.75,0,0,0,4.32-5.88,31.73,31.73,0,0,1,8,1.76,5.34,5.34,0,0,0-1.44,3c-.34,2.71,1.69,5.12,3.65,7.45,2.69,3.19,3.81,4.89,2.49,6.63C69.09,46.8,68,50,69,52.32c.49,1.13,1.72,2.55,4.77,2.86l.31,0c2.22.21,4.23.61,4.51,3.25s2.73,4.45,6,4.53h.18a7.37,7.37,0,0,0,3.2-.71A31.76,31.76,0,0,1,84.18,72,14.84,14.84,0,0,0,72.7,68,10,10,0,0,0,65,72.46a8.77,8.77,0,0,1-6.24,4c-3.39.58-6.64-.3-7.68-1.17-3.31-2.73-7.27-3.5-10.32-2-2.5,1.23-4.07,3.77-4.48,7.15a32.43,32.43,0,0,1-6.46-7.32,1.19,1.19,0,0,0-2,1.29,34.33,34.33,0,0,0,63.11-16h0a1.34,1.34,0,0,0,0-.2c0-.78.08-1.58.08-2.37ZM56.88,35.15a1.4,1.4,0,0,1,2-.12l2.08,1.85a1.4,1.4,0,0,1,.11,2l-3.91,4.41-2.57-5.49Zm-24.75-22a1.46,1.46,0,0,1,1-.46,1.35,1.35,0,0,1,1,.35l2.08,1.85a1.33,1.33,0,0,1,.46,1,1.36,1.36,0,0,1-.35,1L34,19.45l-5.75-1.9ZM16.2,22.85c-1-.52-1.13-.86-1.14-.89s.06-.38.47-.84l1.85-2.07a4.76,4.76,0,0,1,4.79-1l11.74,3.89L34,22,38,23.29l-5.64,7.93ZM13.8,42.6a2,2,0,0,1-.73-.51,1.36,1.36,0,0,1,.29-.44l1-1.14a3.43,3.43,0,0,1,3.45-.71l6.77,2.38L21,47.27l-7-4.6-.12-.07ZM36.39,56.31a3.43,3.43,0,0,1-.31,3.51l-1,1.14a1.29,1.29,0,0,1-.4.34,2,2,0,0,1-.59-.67L34,60.51,28.42,54l4.7-4.27ZM53.54,28l-3.65,3.31-.06.05L25.35,53.58a3.85,3.85,0,0,1-2,.92h0a2,2,0,0,1-1.52-.45c-.77-.66-1.11-2.07-.13-3.73l12-16.87,0,0,10-14.11a12.62,12.62,0,0,1,6.3-5c3.27-1,5.94-1,7,0s1.34,3.57.76,6.93A12.62,12.62,0,0,1,53.54,28Zm31.1,32.59c-1.71,0-3.52-.88-3.68-2.41-.51-4.8-4.82-5.19-6.65-5.36l-.3,0c-1.05-.11-2.39-.45-2.83-1.44-.6-1.39.46-4,2.91-7.24,2.61-3.43-.26-6.85-2.57-9.59-1.63-1.94-3.32-3.94-3.11-5.64a3.65,3.65,0,0,1,1.49-2.28c.81.37,1.6.78,2.39,1.22A32.06,32.06,0,0,1,88.63,55.77c0,.77,0,1.54-.08,2.31-.35,1.92-2.31,2.56-3.91,2.53Zm-28,27.16a31.77,31.77,0,0,1-18.14-5.66c0-3.29,1.2-5.73,3.26-6.74s5.18-.43,7.77,1.7c1.9,1.57,6,2.29,9.59,1.67A11,11,0,0,0,67,73.68,7.74,7.74,0,0,1,73,70.32a12.55,12.55,0,0,1,9.93,3.74A32,32,0,0,1,56.66,87.77Z" transform="translate(-10.69 -10.3)"/><path d="M49.63,16.89a1.19,1.19,0,0,0,.2,2.37,3.3,3.3,0,0,1,2.91,2.67A1.19,1.19,0,0,0,53.92,23h.13a1.19,1.19,0,0,0,1.05-1.31c-.29-2.62-3-5-5.47-4.78Z" transform="translate(-10.69 -10.3)"/></svg>